<!DOCTYPE svg PUBLIC "-//W3C//DTD SVG 1.1//EN" "http://www.w3.org/Graphics/SVG/1.1/DTD/svg11.dtd">
<!-- Uploaded to: SVG Repo, www.svgrepo.com, Transformed by: SVG Repo Mixer Tools -->
<svg width="800px" height="800px" viewBox="-6.4 -6.4 76.80 76.80" xmlns="http://www.w3.org/2000/svg" xmlns:xlink="http://www.w3.org/1999/xlink" aria-hidden="true" role="img" class="iconify iconify--emojione-monotone" preserveAspectRatio="xMidYMid meet" fill="#ffffff" transform="rotate(0)">
<g id="SVGRepo_bgCarrier" stroke-width="0" transform="translate(0,0), scale(1)">
<rect x="-6.4" y="-6.4" width="76.80" height="76.80" rx="38.4" fill="#ffffff" strokewidth="0"/>
</g>
<g id="SVGRepo_tracerCarrier" stroke-linecap="round" stroke-linejoin="round" stroke="#ffffff" stroke-width="12.8">
<path d="M32 2C15.432 2 2 15.432 2 32s13.432 30 30 30s30-13.432 30-30S48.568 2 32 2zm11.762 44.508h-6.061L25.889 25.92v20.588h-5.65V17.492h6.357l11.518 20.231V17.492h5.648v29.016z" fill="#2365FF"/>
</g>
<g id="SVGRepo_iconCarrier">
<path d="M32 2C15.432 2 2 15.432 2 32s13.432 30 30 30s30-13.432 30-30S48.568 2 32 2zm11.762 44.508h-6.061L25.889 25.92v20.588h-5.65V17.492h6.357l11.518 20.231V17.492h5.648v29.016z" fill="#2365FF"/>
</g>
</svg>